<svg id="visual" viewBox="0 0 900 600" width="900" height="600" xmlns="http://www.w3.org/2000/svg" xmlns:xlink="http://www.w3.org/1999/xlink" version="1.1"><rect x="0" y="0" width="900" height="600" fill="#14162f"></rect><path d="M347 0L375.2 14.3C403.3 28.7 459.7 57.3 470.7 85.8C481.7 114.3 447.3 142.7 411.3 171.2C375.3 199.7 337.7 228.3 337.7 257C337.7 285.7 375.3 314.3 375.7 343C376 371.7 339 400.3 319 428.8C299 457.3 296 485.7 301 514.2C306 542.7 319 571.3 325.5 585.7L332 600L0 600L0 585.7C0 571.3 0 542.7 0 514.2C0 485.7 0 457.3 0 428.8C0 400.3 0 371.7 0 343C0 314.3 0 285.7 0 257C0 228.3 0 199.7 0 171.2C0 142.7 0 114.3 0 85.8C0 57.3 0 28.7 0 14.3L0 0Z" fill="#FFFFFF" stroke-linecap="round" stroke-linejoin="miter"></path></svg>